<svg width="64" height="64" viewBox="0 0 64 64" xmlns="http://www.w3.org/2000/svg">
  <!-- Camera body gradient -->
  <defs>
    <linearGradient id="cameraGradient" x1="0%" y1="0%" x2="100%" y2="100%">
      <stop offset="0%" style="stop-color:#4A90E2;stop-opacity:1" />
      <stop offset="100%" style="stop-color:#357ABD;stop-opacity:1" />
    </linearGradient>
    <linearGradient id="lensGradient" x1="0%" y1="0%" x2="100%" y2="100%">
      <stop offset="0%" style="stop-color:#5FA3E8;stop-opacity:1" />
      <stop offset="100%" style="stop-color:#2E5C8A;stop-opacity:1" />
    </linearGradient>
    <radialGradient id="glassGradient" cx="50%" cy="50%" r="50%">
      <stop offset="0%" style="stop-color:#FFFFFF;stop-opacity:0.3" />
      <stop offset="100%" style="stop-color:#FFFFFF;stop-opacity:0" />
    </radialGradient>
  </defs>

  <!-- Shadow -->
  <ellipse cx="32" cy="58" rx="24" ry="4" fill="#000000" opacity="0.1"/>

  <!-- Camera body -->
  <rect x="8" y="20" width="48" height="32" rx="4" ry="4" fill="url(#cameraGradient)"/>

  <!-- Top mount -->
  <rect x="20" y="16" width="24" height="6" rx="2" ry="2" fill="url(#cameraGradient)" opacity="0.8"/>

  <!-- Lens outer ring -->
  <circle cx="32" cy="36" r="14" fill="url(#lensGradient)"/>

  <!-- Lens inner -->
  <circle cx="32" cy="36" r="11" fill="#1E3A5F"/>

  <!-- Lens glass reflection -->
  <circle cx="32" cy="36" r="11" fill="url(#glassGradient)"/>

  <!-- Lens highlight -->
  <circle cx="28" cy="32" r="4" fill="#FFFFFF" opacity="0.4"/>
  <circle cx="27" cy="31" r="2" fill="#FFFFFF" opacity="0.6"/>

  <!-- Aperture blades (hexagon) -->
  <polygon points="32,28 37,30 37,34 32,36 27,34 27,30" fill="#2E5C8A" opacity="0.5"/>

  <!-- Recording indicator LED -->
  <circle cx="50" cy="24" r="3" fill="#FF4444">
    <animate attributeName="opacity" values="1;0.3;1" dur="2s" repeatCount="indefinite"/>
  </circle>

  <!-- Side details -->
  <rect x="10" y="28" width="2" height="4" rx="1" fill="#2E5C8A"/>
  <rect x="10" y="36" width="2" height="4" rx="1" fill="#2E5C8A"/>

  <!-- Button -->
  <circle cx="14" cy="24" r="1.5" fill="#5FA3E8"/>

  <!-- Streaming waves (optional, adds dynamic feel) -->
  <g opacity="0.6">
    <path d="M 44 36 Q 48 36 48 32" stroke="#4A90E2" stroke-width="1.5" fill="none" stroke-linecap="round">
      <animate attributeName="opacity" values="0;1;0" dur="2s" repeatCount="indefinite"/>
    </path>
    <path d="M 46 36 Q 52 36 52 28" stroke="#4A90E2" stroke-width="1.5" fill="none" stroke-linecap="round">
      <animate attributeName="opacity" values="0;1;0" dur="2s" begin="0.5s" repeatCount="indefinite"/>
    </path>
  </g>
</svg>
